<svg width="21" height="21" viewBox="0 0 21 21" xmlns="http://www.w3.org/2000/svg">
<path d="M8.02026 7.83554C8.32669 8.04653 8.62143 8.2868 8.89591 8.56127C9.6693 9.33466 10.174 10.2676 10.5033 11.1752C10.8326 10.2676 11.3373 9.33466 12.1107 8.56127C12.3834 8.28856 12.6762 8.0496 12.9805 7.83956C12.8157 5.97069 11.7718 4.32366 10.9834 3.32395C10.7378 3.01256 10.2645 3.01276 10.0192 3.3244C9.23117 4.32526 8.18687 5.97327 8.02026 7.83554Z" fill="#423191"/>
<path d="M5.11615 12.3411C6.56831 13.7932 8.79817 14.1139 9.86585 14.1823C9.79575 13.1136 9.47255 10.878 8.02588 9.43138C6.8676 8.27314 5.21455 7.83468 4.0511 7.66996C3.64636 7.61267 3.29924 7.96015 3.35687 8.36485C3.52278 9.53015 3.96181 11.1867 5.11615 12.3411Z" fill="#423191"/>
<path d="M12.9808 9.43138C11.5287 10.8835 11.208 13.1134 11.1396 14.1811C12.2084 14.111 14.4439 13.7877 15.8906 12.3411C17.0488 11.1828 17.4873 9.52977 17.652 8.36637C17.7093 7.96162 17.3618 7.61451 16.9571 7.67214C15.7918 7.838 14.1352 8.27704 12.9808 9.43138Z" fill="#423191"/>
</svg>