<svg xmlns="http://www.w3.org/2000/svg">
<symbol id="facebook" >
<path d="M7.5997 7.97805V5.88012C7.5997 5.56518 7.61362 5.32124 7.6419 5.14891C7.67009 4.97633 7.73422 4.8066 7.83375 4.63904C7.93313 4.47158 8.09405 4.35597 8.31627 4.29191C8.53878 4.22774 8.83448 4.19576 9.20365 4.19576H11.219V0H7.99711C6.13286 0 4.79393 0.460405 3.98013 1.38122C3.16642 2.30223 2.75962 3.65887 2.75962 5.45164V7.978H0.346436V12.1741H2.75947V24.3482H7.59965V12.1741H10.8213L11.2472 7.97805H7.5997Z"/>
</symbol>
<symbol id="instagram" viewBox="0 0 23 23" xmlns="http://www.w3.org/2000/svg">
<path d="M21.4403 0.842921C20.9005 0.280889 20.2536 0 19.5 0H3.55823C2.80439 0 2.15772 0.280991 1.61779 0.842921C1.07795 1.4047 0.808105 2.07794 0.808105 2.86248V19.4566C0.808105 20.2411 1.0779 20.9144 1.61779 21.4763C2.15772 22.0382 2.80453 22.3192 3.55823 22.3192H19.4998C20.2533 22.3192 20.9003 22.0382 21.4401 21.4763C21.9801 20.9144 22.2497 20.2411 22.2497 19.4566V2.86248C22.2496 2.07778 21.9801 1.4049 21.4403 0.842921ZM8.50696 8.04267C9.3491 7.19517 10.3612 6.77121 11.5431 6.77121C12.7342 6.77121 13.7508 7.19517 14.5931 8.04267C15.4355 8.89032 15.8564 9.91484 15.8564 11.116C15.8564 12.317 15.4355 13.3416 14.5931 14.189C13.7508 15.0368 12.7345 15.4608 11.5431 15.4608C10.3613 15.4608 9.34925 15.0365 8.50696 14.189C7.66462 13.3415 7.24349 12.317 7.24349 11.116C7.24349 9.91484 7.66462 8.89037 8.50696 8.04267ZM19.8211 18.8611C19.8211 19.1128 19.7371 19.3234 19.5697 19.493C19.4019 19.6625 19.2021 19.7473 18.9692 19.7473H4.04687C3.80495 19.7473 3.60238 19.6625 3.43966 19.493C3.2767 19.3237 3.19529 19.1128 3.19529 18.8611V9.44482H5.16351C4.97747 10.0552 4.88442 10.6898 4.88442 11.3484C4.88442 13.2088 5.53578 14.7947 6.83866 16.1076C8.14167 17.42 9.70974 18.0765 11.5431 18.0765C12.7529 18.0765 13.8696 17.7761 14.8936 17.1755C15.9173 16.5746 16.7264 15.7586 17.3224 14.7268C17.9181 13.6951 18.2159 12.5689 18.2159 11.3484C18.2159 10.6899 18.1225 10.0554 17.9365 9.44487H19.8212V18.8611H19.8211V18.8611ZM19.8211 5.88477C19.8211 6.16571 19.7281 6.40309 19.5416 6.59679C19.3556 6.79065 19.1277 6.88745 18.8577 6.88745H16.4288C16.1591 6.88745 15.9308 6.7906 15.7448 6.59679C15.5587 6.40309 15.4657 6.16571 15.4657 5.88477V3.48742C15.4657 3.21615 15.5587 2.98127 15.7448 2.78263C15.9309 2.58409 16.1591 2.48469 16.4288 2.48469H18.8577C19.1277 2.48469 19.3556 2.58404 19.5416 2.78263C19.728 2.98127 19.8211 3.21615 19.8211 3.48742V5.88477Z"/>
</symbol>
</svg>