<svg viewBox="0 0 31 31" xmlns="http://www.w3.org/2000/svg">
<path d="M7.773 5.65979L7.7469 5.54233L7.09768 2.62075C7.02047 2.27378 6.71282 2.02698 6.35742 2.02698H0.908203C0.489406 2.02698 0.15 2.36639 0.15 2.78518C0.15 3.20398 0.489406 3.54339 0.908203 3.54339H5.62897H5.74932L5.7754 3.66088L9.05439 18.4168L9.08123 18.5376L8.96776 18.5869C8.05514 18.9836 7.41563 19.8933 7.41563 20.9492C7.41563 22.3687 8.57076 23.5239 9.99023 23.5239H26.459C26.8778 23.5239 27.2172 23.1845 27.2172 22.7657C27.2172 22.3469 26.8778 22.0075 26.459 22.0075H9.99023C9.4067 22.0075 8.93203 21.5328 8.93203 20.9492C8.93203 20.3677 9.40312 19.8946 9.98387 19.8913L7.773 5.65979ZM7.773 5.65979H7.89333M7.773 5.65979H7.89333M7.89333 5.65979H30.0918C30.3296 5.65979 30.5538 5.7715 30.6971 5.96146M7.89333 5.65979L30.6971 5.96146M30.6971 5.96146C30.8403 6.15143 30.8861 6.39746 30.8208 6.62633L30.6971 5.96146ZM29.0319 7.36741L29.0866 7.1762H28.8877H8.29681H8.10982L8.15039 7.35874L10.5723 18.2572L10.5984 18.3746H10.7187H25.7738H25.887L25.918 18.2658L29.0319 7.36741ZM9.97614 19.8919C9.97589 19.8919 9.976 19.8919 9.97634 19.8919L9.97614 19.8919Z"/>
<path d="M11.8066 28.973C10.3872 28.973 9.23203 27.8179 9.23203 26.3984C9.23203 24.9789 10.3872 23.8238 11.8066 23.8238C13.2261 23.8238 14.3812 24.9789 14.3812 26.3984C14.3812 27.8179 13.2261 28.973 11.8066 28.973ZM12.8648 26.3984C12.8648 25.8149 12.3902 25.3402 11.8066 25.3402C11.2231 25.3402 10.7484 25.8149 10.7484 26.3984C10.7484 26.982 11.2231 27.4566 11.8066 27.4566C12.3902 27.4566 12.8648 26.982 12.8648 26.3984Z"/>
<path d="M24.6426 28.973C23.2231 28.973 22.068 27.8179 22.068 26.3984C22.068 24.9789 23.2231 23.8238 24.6426 23.8238C26.0621 23.8238 27.2172 24.9789 27.2172 26.3984C27.2172 27.8179 26.0621 28.973 24.6426 28.973ZM25.7008 26.3984C25.7008 25.8149 25.2261 25.3402 24.6426 25.3402C24.059 25.3402 23.5844 25.8149 23.5844 26.3984C23.5844 26.982 24.059 27.4566 24.6426 27.4566C25.2261 27.4566 25.7008 26.982 25.7008 26.3984Z"/>
</svg>