<svg viewBox="0 0 27 27" xmlns="http://www.w3.org/2000/svg">
<path d="M10.2618 13.9238L10.4781 14.0878L10.2242 14.1837C6.7114 15.511 4.19551 18.908 4.15061 22.8921L5.35278 23.2928C5.46866 18.9763 9.18646 15.0141 13.4999 15.0141C17.8135 15.0141 21.5313 18.9763 21.6472 23.2928L22.8494 22.8921C22.8047 18.908 20.2886 15.511 16.776 14.1837L16.5222 14.0878L16.7384 13.9238C18.0475 12.9313 18.8951 11.3546 18.8951 9.58192C18.8951 6.586 16.4738 4.15 13.5001 4.15C10.5262 4.15 8.10492 6.586 8.10492 9.58192C8.10492 11.3546 8.9527 12.9313 10.2618 13.9238ZM13.5001 5.57727C15.6954 5.57727 17.4792 7.37444 17.4792 9.58192C17.4792 11.7894 15.6954 13.5868 13.5001 13.5868C11.3048 13.5868 9.52098 11.7894 9.52098 9.58192C9.52098 7.37444 11.3048 5.57727 13.5001 5.57727Z" stroke="white" stroke-width="0.3"/>
</svg>