<svg xmlns="http://www.w3.org/2000/svg" xmlns:xlink="http://www.w3.org/1999/xlink"><defs><symbol viewBox="0 0 31 31" id="cart"><path d="M7.773 5.66l-.026-.118-.65-2.921a.758.758 0 00-.74-.594H.908a.758.758 0 100 1.516H5.75l.026.118 3.28 14.756.026.12-.113.05a2.578 2.578 0 00-1.552 2.362 2.578 2.578 0 002.574 2.575H26.46a.758.758 0 100-1.517H9.99a1.059 1.059 0 01-.006-2.116L7.773 5.66zm0 0h.12m-.12 0h.12m0 0h22.199c.238 0 .462.111.605.301M7.893 5.66l22.804.301m0 0c.143.19.19.436.124.665l-.124-.665zm-1.665 1.406l.055-.19H8.11l.04.182 2.422 10.898.026.118H25.887l.031-.11 3.114-10.898zM9.976 19.892zM11.807 28.973a2.578 2.578 0 01-2.575-2.575 2.578 2.578 0 012.575-2.574 2.578 2.578 0 012.574 2.574 2.578 2.578 0 01-2.574 2.575zm1.058-2.575a1.06 1.06 0 00-2.117 0 1.06 1.06 0 002.117 0zM24.643 28.973a2.578 2.578 0 01-2.575-2.575 2.578 2.578 0 012.575-2.574 2.578 2.578 0 012.574 2.574 2.578 2.578 0 01-2.574 2.575zm1.058-2.575a1.06 1.06 0 00-2.117 0 1.06 1.06 0 002.117 0z" /></symbol><symbol viewBox="0 0 27 27" id="login"><path d="M10.262 13.924l.216.164-.254.096a9.427 9.427 0 00-6.073 8.708l1.202.4c.116-4.316 3.833-8.278 8.147-8.278s8.031 3.962 8.147 8.279l1.202-.4a9.426 9.426 0 00-6.073-8.71l-.254-.095.216-.164a5.44 5.44 0 002.157-4.342c0-2.996-2.421-5.432-5.395-5.432-2.974 0-5.395 2.436-5.395 5.432a5.44 5.44 0 002.157 4.342zM13.5 5.577c2.195 0 3.98 1.797 3.98 4.005 0 2.207-1.785 4.005-3.98 4.005-2.195 0-3.979-1.798-3.979-4.005 0-2.208 1.784-4.005 3.98-4.005z" /></symbol></defs></svg>